<svg width="25" height="25" viewBox="0 0 25 25" fill="none" xmlns="http://www.w3.org/2000/svg">
<g clip-path="url(#clip0_918_4245)">
<path d="M19.75 3.90625H4.75C4.33579 3.90625 4 4.24204 4 4.65625V19.6562C4 20.0705 4.33579 20.4062 4.75 20.4062H19.75C20.1642 20.4062 20.5 20.0705 20.5 19.6562V4.65625C20.5 4.24204 20.1642 3.90625 19.75 3.90625Z" stroke="#2D1C4D" stroke-width="2" stroke-linecap="round" stroke-linejoin="round"/>
<path d="M16.75 2.40625V5.40625" stroke="#2D1C4D" stroke-width="2" stroke-linecap="round" stroke-linejoin="round"/>
<path d="M7.75 2.40625V5.40625" stroke="#2D1C4D" stroke-width="2" stroke-linecap="round" stroke-linejoin="round"/>
<path d="M4 8.40625H20.5" stroke="#2D1C4D" stroke-width="2" stroke-linecap="round" stroke-linejoin="round"/>
<path d="M12.25 13.6562C12.8713 13.6562 13.375 13.1526 13.375 12.5312C13.375 11.9099 12.8713 11.4062 12.25 11.4062C11.6287 11.4062 11.125 11.9099 11.125 12.5312C11.125 13.1526 11.6287 13.6562 12.25 13.6562Z" fill="#2D1C4D"/>
<path d="M16.375 13.6562C16.9963 13.6562 17.5 13.1526 17.5 12.5312C17.5 11.9099 16.9963 11.4062 16.375 11.4062C15.7537 11.4062 15.25 11.9099 15.25 12.5312C15.25 13.1526 15.7537 13.6562 16.375 13.6562Z" fill="#2D1C4D"/>
<path d="M8.125 17.4062C8.74632 17.4062 9.25 16.9026 9.25 16.2812C9.25 15.6599 8.74632 15.1562 8.125 15.1562C7.50368 15.1562 7 15.6599 7 16.2812C7 16.9026 7.50368 17.4062 8.125 17.4062Z" fill="#2D1C4D"/>
<path d="M12.25 17.4062C12.8713 17.4062 13.375 16.9026 13.375 16.2812C13.375 15.6599 12.8713 15.1562 12.25 15.1562C11.6287 15.1562 11.125 15.6599 11.125 16.2812C11.125 16.9026 11.6287 17.4062 12.25 17.4062Z" fill="#2D1C4D"/>
<path d="M16.375 17.4062C16.9963 17.4062 17.5 16.9026 17.5 16.2812C17.5 15.6599 16.9963 15.1562 16.375 15.1562C15.7537 15.1562 15.25 15.6599 15.25 16.2812C15.25 16.9026 15.7537 17.4062 16.375 17.4062Z" fill="#2D1C4D"/>
</g>
<defs>
<clipPath id="clip0_918_4245">
<rect width="24" height="24" fill="white" transform="translate(0.25 0.15625)"/>
</clipPath>
</defs>
</svg>
