<svg width="21" height="21" viewBox="0 0 21 21" fill="none" xmlns="http://www.w3.org/2000/svg">
<g clip-path="url(#clip0_882_11380)">
<path d="M7.96967 15.4702C7.96967 16.1333 8.23306 16.7691 8.7019 17.238C9.17074 17.7068 9.80662 17.9702 10.4697 17.9702C11.1327 17.9702 11.7686 17.7068 12.2374 17.238C12.7063 16.7691 12.9697 16.1333 12.9697 15.4702" stroke="#A29F9F" stroke-linecap="round" stroke-linejoin="round"/>
<path d="M4.84466 8.59521C4.84466 7.10337 5.43729 5.67263 6.49218 4.61774C7.54708 3.56285 8.97782 2.97021 10.4697 2.97021C11.9615 2.97021 13.3922 3.56285 14.4471 4.61774C15.502 5.67263 16.0947 7.10337 16.0947 8.59521C16.0947 11.3937 16.7431 13.6421 17.2587 14.5327C17.3135 14.6276 17.3424 14.7351 17.3425 14.8447C17.3426 14.9542 17.3139 15.0618 17.2593 15.1568C17.2047 15.2517 17.1261 15.3306 17.0314 15.3857C16.9367 15.4407 16.8292 15.4698 16.7197 15.4702H4.21966C4.11027 15.4696 4.00297 15.4402 3.90848 15.3851C3.81399 15.33 3.73562 15.251 3.68121 15.1561C3.6268 15.0612 3.59825 14.9537 3.59842 14.8443C3.59859 14.7349 3.62746 14.6275 3.68216 14.5327C4.197 13.6421 4.84466 11.3929 4.84466 8.59521Z" stroke="#A29F9F" stroke-linecap="round" stroke-linejoin="round"/>
<circle cx="14.2174" cy="4.79443" r="3.125" fill="#E62971"/>
</g>
<defs>
<clipPath id="clip0_882_11380">
<rect width="20" height="20" fill="white" transform="translate(0.469666 0.470215)"/>
</clipPath>
</defs>
</svg>
