<svg width="21" height="21" viewBox="0 0 21 21" fill="none" xmlns="http://www.w3.org/2000/svg">
<path d="M20.2413 12.45C20.1407 12.3492 20.0145 12.2777 19.8763 12.2431C19.7381 12.2086 19.5931 12.2123 19.4568 12.2539C17.9611 12.7061 16.3707 12.744 14.8551 12.3636C13.3394 11.9832 11.9554 11.1987 10.8505 10.0938C9.74556 8.98886 8.9611 7.60485 8.5807 6.08924C8.20029 4.57364 8.23821 2.98322 8.6904 1.48746C8.73236 1.35116 8.73638 1.206 8.70202 1.0676C8.66766 0.929188 8.59622 0.802766 8.49538 0.701925C8.39454 0.601085 8.26811 0.529642 8.1297 0.49528C7.9913 0.460918 7.84614 0.464937 7.70985 0.506904C5.64189 1.14038 3.82641 2.40995 2.52175 4.13494C1.38079 5.64976 0.684837 7.45271 0.512074 9.34125C0.339311 11.2298 0.696585 13.1291 1.54376 14.8258C2.39093 16.5225 3.69443 17.9493 5.30782 18.946C6.92121 19.9427 8.78057 20.4698 10.677 20.468C12.8895 20.4748 15.0431 19.7556 16.8074 18.4206C18.5324 17.1159 19.802 15.3005 20.4354 13.2325C20.4769 13.0967 20.4808 12.9522 20.4466 12.8144C20.4124 12.6766 20.3414 12.5507 20.2413 12.45ZM15.8641 17.1674C14.2026 18.4189 12.145 19.028 10.07 18.8827C7.99499 18.7374 6.04232 17.8475 4.57143 16.3767C3.10054 14.906 2.21044 12.9534 2.06498 10.8784C1.91952 8.80341 2.52849 6.74572 3.7798 5.08412C4.59503 4.00753 5.64899 3.13483 6.85873 2.53468C6.78981 3.01832 6.75508 3.50621 6.75479 3.99472C6.75764 6.69845 7.83296 9.29063 9.74479 11.2025C11.6566 13.1143 14.2488 14.1896 16.9525 14.1925C17.442 14.1923 17.9309 14.1576 18.4155 14.0885C17.8148 15.2985 16.9414 16.3524 15.8641 17.1674Z" fill="#A29F9F"/>
</svg>
